<?xml version="1.0" encoding="UTF-8"?>
<svg width="54px" height="34px" viewBox="0 0 54 34" version="1.1" xmlns="http://www.w3.org/2000/svg" xmlns:xlink="http://www.w3.org/1999/xlink">
    <!-- Generator: Sketch 52.2 (67145) - http://www.bohemiancoding.com/sketch -->
    <title>icon_card</title>
    <desc>Created with Sketch.</desc>
    <defs>
        <polygon id="path-1" points="0 0.0182249223 53.6291435 0.0182249223 53.6291435 33.3143741 0 33.3143741"></polygon>
        <polygon id="path-3" points="0 33.4361536 53.6291435 33.4361536 53.6291435 0.139976362 0 0.139976362"></polygon>
    </defs>
    <g id="landingpage" stroke="none" stroke-width="1" fill="none" fill-rule="evenodd">
        <g id="Desktop-HD" transform="translate(-729.972758, -1482.292295)">
            <g id="icon_card" transform="translate(730.121124, 1482.097375)">
                <g id="Group-3" transform="translate(0.000000, 0.121779)">
                    <mask id="mask-2" fill="white">
                        <use xlink:href="#path-1"></use>
                    </mask>
                    <g id="Clip-2"></g>
                    <path d="M52.2294499,33.3144021 L1.39969363,33.3144021 C0.62982364,33.3144021 -6.99881809e-05,32.6845085 -6.99881809e-05,31.9146385 L-6.99881809e-05,1.41798854 C-6.99881809e-05,0.648118551 0.62982364,0.0182249223 1.39969363,0.0182249223 L52.2294499,0.0182249223 C52.9993199,0.0182249223 53.6292135,0.648118551 53.6292135,1.41798854 L53.6292135,31.9146385 C53.6292135,32.6845085 52.9993199,33.3144021 52.2294499,33.3144021" id="Fill-1" fill="#4FC95B" mask="url(#mask-2)"></path>
                </g>
                <mask id="mask-4" fill="white">
                    <use xlink:href="#path-3"></use>
                </mask>
                <g id="Clip-5"></g>
                <polygon id="Fill-4" fill="#FFFFFF" mask="url(#mask-4)" points="8.53533862 28.5529382 9.34230235 28.5529382 9.34230235 4.95558314 8.53533862 4.95558314"></polygon>
                <path d="M8.67531498,28.4129618 L9.20232598,28.4129618 L9.20232598,5.0955595 L8.67531498,5.0955595 L8.67531498,28.4129618 Z M8.39536226,28.6929146 L9.48227871,28.6929146 L9.48227871,4.81560678 L8.39536226,4.81560678 L8.39536226,28.6929146 Z" id="Fill-6" fill="#FFFFFF" mask="url(#mask-4)"></path>
                <polygon id="Fill-7" fill="#FFFFFF" mask="url(#mask-4)" points="11.2766357 28.5529382 11.6801875 28.5529382 11.6801875 4.95558314 11.2766357 4.95558314"></polygon>
                <path d="M11.5462436,28.4129618 L11.7270751,28.4129618 L11.7270751,5.0955595 L11.5462436,5.0955595 L11.5462436,28.4129618 Z M11.1366593,28.6929146 L12.1366593,28.6929146 L12.1366593,4.81560678 L11.1366593,4.81560678 L11.1366593,28.6929146 Z" id="Fill-8" fill="#FFFFFF" mask="url(#mask-4)"></path>
                <polygon id="Fill-9" fill="#FFFFFF" mask="url(#mask-4)" points="12.5294241 28.5529382 12.932836 28.5529382 12.932836 4.95558314 12.5294241 4.95558314"></polygon>
                <path d="M12.7991159,28.4129618 L12.9797796,28.4129618 L12.9797796,5.0955595 L12.7991159,5.0955595 L12.7991159,28.4129618 Z M12.3894478,28.6929146 L13.3894478,28.6929146 L13.3894478,4.81560678 L12.3894478,4.81560678 L12.3894478,28.6929146 Z" id="Fill-10" fill="#FFFFFF" mask="url(#mask-4)"></path>
                <polygon id="Fill-11" fill="#FFFFFF" mask="url(#mask-4)" points="7.46437947 28.5529382 7.78506532 28.5529382 7.78506532 4.95558314 7.46437947 4.95558314"></polygon>
                <path d="M7.79049493,28.4129618 L7.85831129,28.4129618 L7.85831129,5.0955595 L7.79049493,5.0955595 L7.79049493,28.4129618 Z M7.32440311,28.6929146 L8.32440311,28.6929146 L8.32440311,4.81560678 L7.32440311,4.81560678 L7.32440311,28.6929146 Z" id="Fill-12" fill="#FFFFFF" mask="url(#mask-4)"></path>
                <polygon id="Fill-13" fill="#FFFFFF" mask="url(#mask-4)" points="6.23566697 28.5529382 6.55635281 28.5529382 6.55635281 4.95558314 6.23566697 4.95558314"></polygon>
                <path d="M6.56178243,28.4129618 L6.62959879,28.4129618 L6.62959879,5.0955595 L6.56178243,5.0955595 L6.56178243,28.4129618 Z M6.09569061,28.6929146 L7.09569061,28.6929146 L7.09569061,4.81560678 L6.09569061,4.81560678 L6.09569061,28.6929146 Z" id="Fill-14" fill="#FFFFFF" mask="url(#mask-4)"></path>
                <polygon id="Fill-15" fill="#FFFFFF" mask="url(#mask-4)" points="14.5305262 28.5529382 14.9339381 28.5529382 14.9339381 4.95558314 14.5305262 4.95558314"></polygon>
                <path d="M14.800218,28.4129618 L14.9808817,28.4129618 L14.9808817,5.0955595 L14.800218,5.0955595 L14.800218,28.4129618 Z M14.3905498,28.6929146 L15.3905498,28.6929146 L15.3905498,4.81560678 L14.3905498,4.81560678 L14.3905498,28.6929146 Z" id="Fill-16" fill="#FFFFFF" mask="url(#mask-4)"></path>
                <polygon id="Fill-17" fill="#FFFFFF" mask="url(#mask-4)" points="20.4396283 28.5529382 21.246592 28.5529382 21.246592 4.95558314 20.4396283 4.95558314"></polygon>
                <path d="M20.5796047,28.4129618 L21.1066157,28.4129618 L21.1066157,5.0955595 L20.5796047,5.0955595 L20.5796047,28.4129618 Z M20.299652,28.6929146 L21.3865684,28.6929146 L21.3865684,4.81560678 L20.299652,4.81560678 L20.299652,28.6929146 Z" id="Fill-18" fill="#FFFFFF" mask="url(#mask-4)"></path>
                <polygon id="Fill-19" fill="#FFFFFF" mask="url(#mask-4)" points="17.2597853 28.5529382 18.71232 28.5529382 18.71232 4.95558314 17.2597853 4.95558314"></polygon>
                <path d="M17.3997617,28.4129618 L18.5723436,28.4129618 L18.5723436,5.0955595 L17.3997617,5.0955595 L17.3997617,28.4129618 Z M17.1198089,28.6929146 L18.8522964,28.6929146 L18.8522964,4.81560678 L17.1198089,4.81560678 L17.1198089,28.6929146 Z" id="Fill-20" fill="#FFFFFF" mask="url(#mask-4)"></path>
                <polygon id="Fill-21" fill="#FFFFFF" mask="url(#mask-4)" points="33.2631428 28.5529382 34.0701065 28.5529382 34.0701065 4.95558314 33.2631428 4.95558314"></polygon>
                <path d="M33.4031191,28.4129618 L33.9301301,28.4129618 L33.9301301,5.0955595 L33.4031191,5.0955595 L33.4031191,28.4129618 Z M33.1231664,28.6929146 L34.2100829,28.6929146 L34.2100829,4.81560678 L33.1231664,4.81560678 L33.1231664,28.6929146 Z" id="Fill-22" fill="#FFFFFF" mask="url(#mask-4)"></path>
                <polygon id="Fill-23" fill="#FFFFFF" mask="url(#mask-4)" points="42.363426 28.5529382 43.8161007 28.5529382 43.8161007 4.95558314 42.363426 4.95558314"></polygon>
                <path d="M42.5034024,28.4129618 L43.6761243,28.4129618 L43.6761243,5.0955595 L42.5034024,5.0955595 L42.5034024,28.4129618 Z M42.2234496,28.6929146 L43.956077,28.6929146 L43.956077,4.81560678 L42.2234496,4.81560678 L42.2234496,28.6929146 Z" id="Fill-24" fill="#FFFFFF" mask="url(#mask-4)"></path>
                <polygon id="Fill-25" fill="#FFFFFF" mask="url(#mask-4)" points="26.3991219 28.5529382 26.8025338 28.5529382 26.8025338 4.95558314 26.3991219 4.95558314"></polygon>
                <path d="M26.6688137,28.4129618 L26.8494774,28.4129618 L26.8494774,5.0955595 L26.6688137,5.0955595 L26.6688137,28.4129618 Z M26.2591456,28.6929146 L27.2591456,28.6929146 L27.2591456,4.81560678 L26.2591456,4.81560678 L26.2591456,28.6929146 Z" id="Fill-26" fill="#FFFFFF" mask="url(#mask-4)"></path>
                <polygon id="Fill-27" fill="#FFFFFF" mask="url(#mask-4)" points="30.2868254 28.5529382 30.5288445 28.5529382 30.5288445 4.95558314 30.2868254 4.95558314"></polygon>
                <polygon id="Fill-28" fill="#FFFFFF" mask="url(#mask-4)" points="30.146849 28.6929146 30.6688209 28.6929146 30.6688209 4.81560678 30.146849 4.81560678"></polygon>
                <polygon id="Fill-29" fill="#FFFFFF" mask="url(#mask-4)" points="28.3834268 28.5529382 28.625446 28.5529382 28.625446 4.95558314 28.3834268 4.95558314"></polygon>
                <polygon id="Fill-30" fill="#FFFFFF" mask="url(#mask-4)" points="28.2434505 28.6929146 28.7654223 28.6929146 28.7654223 4.81560678 28.2434505 4.81560678"></polygon>
                <polygon id="Fill-31" fill="#FFFFFF" mask="url(#mask-4)" points="37.6996936 28.5529382 37.9417127 28.5529382 37.9417127 4.95558314 37.6996936 4.95558314"></polygon>
                <polygon id="Fill-32" fill="#FFFFFF" mask="url(#mask-4)" points="37.5597172 28.6929146 38.0816891 28.6929146 38.0816891 4.81560678 37.5597172 4.81560678"></polygon>
                <polygon id="Fill-33" fill="#FFFFFF" mask="url(#mask-4)" points="39.7635051 28.5529382 40.1670569 28.5529382 40.1670569 4.95558314 39.7635051 4.95558314"></polygon>
                <path d="M40.033113,28.4129618 L40.2139444,28.4129618 L40.2139444,5.0955595 L40.033113,5.0955595 L40.033113,28.4129618 Z M39.6235287,28.6929146 L40.6235287,28.6929146 L40.6235287,4.81560678 L39.6235287,4.81560678 L39.6235287,28.6929146 Z" id="Fill-34" fill="#FFFFFF" mask="url(#mask-4)"></path>
                <polygon id="Fill-35" fill="#FFFFFF" mask="url(#mask-4)" points="44.5112233 28.5529382 44.7532424 28.5529382 44.7532424 4.95558314 44.5112233 4.95558314"></polygon>
                <polygon id="Fill-36" fill="#FFFFFF" mask="url(#mask-4)" points="44.3712469 28.6929146 44.8932188 28.6929146 44.8932188 4.81560678 44.3712469 4.81560678"></polygon>
                <polygon id="Fill-37" fill="#FFFFFF" mask="url(#mask-4)" points="45.5026759 28.5529382 45.9062277 28.5529382 45.9062277 4.95558314 45.5026759 4.95558314"></polygon>
                <path d="M45.7722838,28.4129618 L45.9531152,28.4129618 L45.9531152,5.0955595 L45.7722838,5.0955595 L45.7722838,28.4129618 Z M45.3626995,28.6929146 L46.3626995,28.6929146 L46.3626995,4.81560678 L45.3626995,4.81560678 L45.3626995,28.6929146 Z" id="Fill-38" fill="#FFFFFF" mask="url(#mask-4)"></path>
                <polygon id="Fill-39" fill="#FFFFFF" mask="url(#mask-4)" points="35.796295 28.5529382 36.0383141 28.5529382 36.0383141 4.95558314 35.796295 4.95558314"></polygon>
                <polygon id="Fill-40" fill="#FFFFFF" mask="url(#mask-4)" points="35.6563186 28.6929146 36.1782905 28.6929146 36.1782905 4.81560678 35.6563186 4.81560678"></polygon>
                <polygon id="Fill-41" fill="#FFFFFF" mask="url(#mask-4)" points="31.2919957 28.5529382 32.0936403 28.5529382 32.0936403 4.95558314 31.2919957 4.95558314"></polygon>
                <path d="M31.431972,28.4129618 L31.9536639,28.4129618 L31.9536639,5.0955595 L31.431972,5.0955595 L31.431972,28.4129618 Z M31.1520193,28.6929146 L32.2336166,28.6929146 L32.2336166,4.81560678 L31.1520193,4.81560678 L31.1520193,28.6929146 Z" id="Fill-42" fill="#FFFFFF" mask="url(#mask-4)"></path>
                <polygon id="Fill-43" fill="#FFFFFF" mask="url(#mask-4)" points="24.4020792 28.5529382 24.805631 28.5529382 24.805631 4.95558314 24.4020792 4.95558314"></polygon>
                <path d="M24.6718919,28.4129618 L24.8527233,28.4129618 L24.8527233,5.0955595 L24.6718919,5.0955595 L24.6718919,28.4129618 Z M24.2621028,28.6929146 L25.2621028,28.6929146 L25.2621028,4.81560678 L24.2621028,4.81560678 L24.2621028,28.6929146 Z" id="Fill-44" fill="#FFFFFF" mask="url(#mask-4)"></path>
                <polygon id="Fill-45" fill="#FFFFFF" mask="url(#mask-4)" points="22.6243794 28.5529382 23.189324 28.5529382 23.189324 4.95558314 22.6243794 4.95558314"></polygon>
                <path d="M22.8157483,28.4129618 L23.1530577,28.4129618 L23.1530577,5.0955595 L22.8157483,5.0955595 L22.8157483,28.4129618 Z M22.484403,28.6929146 L23.484403,28.6929146 L23.484403,4.81560678 L22.484403,4.81560678 L22.484403,28.6929146 Z" id="Fill-46" fill="#FFFFFF" mask="url(#mask-4)"></path>
                <polygon id="Fill-47" fill="#FFFFFF" mask="url(#mask-4)" points="46.6544014 28.5529382 47.4613651 28.5529382 47.4613651 4.95558314 46.6544014 4.95558314"></polygon>
                <path d="M46.7943777,28.4129618 L47.3213887,28.4129618 L47.3213887,5.0955595 L46.7943777,5.0955595 L46.7943777,28.4129618 Z M46.514425,28.6929146 L47.6013415,28.6929146 L47.6013415,4.81560678 L46.514425,4.81560678 L46.514425,28.6929146 Z" id="Fill-48" fill="#FFFFFF" mask="url(#mask-4)"></path>
            </g>
        </g>
    </g>
</svg>