<?xml version="1.0" encoding="UTF-8"?>
<svg width="34px" height="22px" viewBox="0 0 34 22" version="1.1" xmlns="http://www.w3.org/2000/svg" xmlns:xlink="http://www.w3.org/1999/xlink">
    <!-- Generator: Sketch 52.2 (67145) - http://www.bohemiancoding.com/sketch -->
    <title>card-inactive</title>
    <desc>Created with Sketch.</desc>
    <defs>
        <polygon id="path-1" points="4.29086538e-05 0.257451923 33.1409279 0.257451923 33.1409279 20.596068 4.29086538e-05 20.596068"></polygon>
    </defs>
    <g id="Design-System" stroke="none" stroke-width="1" fill="none" fill-rule="evenodd">
        <g id="Design-System-Copy" transform="translate(-168.562006, -469.000000)">
            <g id="card-inactive" transform="translate(168.977789, 469.312316)">
                <g id="Group-3" transform="translate(0.000000, 0.171635)">
                    <mask id="mask-2" fill="white">
                        <use xlink:href="#path-1"></use>
                    </mask>
                    <g id="Clip-2"></g>
                    <path d="M31.97171,0.257366106 L1.16587103,0.257366106 C0.521383053,0.257366106 4.29086538e-05,0.818611298 4.29086538e-05,1.50729519 L4.29086538e-05,3.45363173 L33.1409708,3.45363173 L33.1409708,1.50729519 C33.1409708,0.818611298 32.6196306,0.257366106 31.97171,0.257366106 Z M3.43917151,15.1749887 C3.68546719,14.9115296 4.02230012,14.7489058 4.39860901,14.7489058 L10.0612641,14.7489058 C10.8104492,14.7489058 11.4188939,15.399401 11.4188939,16.2000764 C11.4188939,16.6025596 11.2665681,16.9625632 11.0202725,17.2255933 C10.7744059,17.4847615 10.437573,17.6473853 10.0612641,17.6473853 L4.39860901,17.6473853 C3.64942392,17.6473853 3.04097921,17.001181 3.04097921,16.2000764 C3.04097921,15.7980224 3.19330493,15.4380187 3.43917151,15.1749887 Z M4.29086538e-05,19.3500007 C4.29086538e-05,20.0391137 0.521383053,20.596068 1.16587103,20.596068 L31.97171,20.596068 C32.6196306,20.596068 33.1409708,20.0391137 33.1409708,19.3500007 L33.1409708,6.85500072 L4.29086538e-05,6.85500072 L4.29086538e-05,19.3500007 Z" id="Fill-1" fill="#9B9B9B" mask="url(#mask-2)"></path>
                </g>
                <path d="M9.96952536,17.8191487 L4.49009026,17.8191487 C3.68984387,17.8191487 3.04106502,17.1703698 3.04106502,16.3701234 C3.04106502,15.569448 3.68984387,14.9206691 4.49009026,14.9206691 L9.96952536,14.9206691 C10.7697718,14.9206691 11.4185506,15.569448 11.4185506,16.3701234 C11.4185506,17.1703698 10.7697718,17.8191487 9.96952536,17.8191487" id="Fill-4" fill="#FFFFFF"></path>
            </g>
        </g>
    </g>
</svg>