<?xml version="1.0" encoding="UTF-8"?>
<svg width="21px" height="17px" viewBox="0 0 21 17" version="1.1" xmlns="http://www.w3.org/2000/svg" xmlns:xlink="http://www.w3.org/1999/xlink">
    <!-- Generator: Sketch 52.2 (67145) - http://www.bohemiancoding.com/sketch -->
    <title>Group 10</title>
    <desc>Created with Sketch.</desc>
    <defs>
        <polygon id="path-1" points="0.0722112477 0.227782062 15.3692455 0.227782062 15.3692455 11.5480208 0.0722112477 11.5480208"></polygon>
    </defs>
    <g id="Mockups_web" stroke="none" stroke-width="1" fill="none" fill-rule="evenodd">
        <g id="desktop_coupon_create" transform="translate(-68.000000, -209.000000)">
            <g id="Group-10" transform="translate(68.358782, 209.532830)">
                <g id="Group-3" transform="translate(1.444707, 0.013075)">
                    <mask id="mask-2" fill="white">
                        <use xlink:href="#path-1"></use>
                    </mask>
                    <g id="Clip-2"></g>
                    <path d="M15.0201081,9.68194155 C14.7528374,10.587291 13.7993311,11.1025696 12.8939816,10.8328911 C12.8169306,10.8112205 12.7422875,10.7823263 12.67246,10.7486165 C12.8843503,11.220554 13.3611034,11.5480208 13.9100919,11.5480208 C14.6613393,11.5480208 15.2729317,10.9364284 15.2729317,10.185181 C15.2729317,9.92272597 15.1982885,9.6795337 15.068265,9.4724591 C15.0562257,9.54228658 15.0417787,9.61211407 15.0201081,9.68194155 M13.8811978,4.27873915 L13.9052762,4.30040975 L15.3692455,5.93533597 L14.5409471,4.18242538 C14.4566725,4.0524018 14.3290568,3.95608803 14.1773626,3.91033899 L1.87087087,0.255231486 C1.52173346,0.151694185 1.15574114,0.34913741 1.05220384,0.698274819 L0.0722112477,3.99702138 L13.1106876,3.99702138 C13.3924054,3.99702138 13.6644918,4.09815084 13.8811978,4.27873915" id="Fill-1" fill="#33292C" mask="url(#mask-2)"></path>
                </g>
                <path d="M15.3139132,7.56886563 C14.4085638,7.29918708 13.4550575,7.81446574 13.1877868,8.71981516 C12.9397788,9.54811357 13.3515202,10.4173453 14.1172147,10.761667 C14.0353479,10.5907101 13.9920068,10.4004904 13.9920068,10.1982315 C13.9920068,9.44698411 14.6035992,8.83539168 15.3548466,8.83539168 C15.8436389,8.83539168 16.2746431,9.09543886 16.5130196,9.48550962 C16.6526746,8.64757983 16.1494352,7.81446574 15.3139132,7.56886563" id="Fill-4" fill="#FFFFFF"></path>
                <path d="M15.3548225,12.0426642 C14.3363044,12.0426642 13.5104138,11.2167737 13.5104138,10.1982556 C13.5104138,9.17973748 14.3363044,8.35384692 15.3548225,8.35384692 C16.3733406,8.35384692 17.1992312,9.17973748 17.1992312,10.1982556 C17.1992312,11.2167737 16.3733406,12.0426642 15.3548225,12.0426642 M19.4866832,9.65408279 L15.013631,4.66021391 C14.8857744,4.55186092 14.7244489,4.49166482 14.5561406,4.49166482 L0.71031404,4.49166482 C0.317835435,4.49166482 0,4.80950025 0,5.20197886 L0,15.1945323 C0,15.5870109 0.317835435,15.9048463 0.71031404,15.9048463 L14.5561406,15.9048463 C14.7244489,15.9048463 14.8857744,15.8446502 15.013631,15.7362973 L19.4866832,10.7424284 C19.8213735,10.4583028 19.8213735,9.93820841 19.4866832,9.65408279" id="Fill-6" fill="#170409"></path>
                <path d="M17.5203653,10.1982074 C17.5203653,9.00223121 16.5509673,8.03259235 15.3547503,8.03259235 C14.158774,8.03259235 13.189376,9.00223121 13.189376,10.1982074 C13.189376,11.3941836 14.158774,12.3638225 15.3547503,12.3638225 C16.5509673,12.3638225 17.5203653,11.3941836 17.5203653,10.1982074" id="Fill-8" fill="#4FC95B"></path>
            </g>
        </g>
    </g>
</svg>