<?xml version="1.0" encoding="UTF-8"?>
<svg width="29px" height="27px" viewBox="0 0 29 27" version="1.1" xmlns="http://www.w3.org/2000/svg" xmlns:xlink="http://www.w3.org/1999/xlink">
    <!-- Generator: Sketch 52.2 (67145) - http://www.bohemiancoding.com/sketch -->
    <title>customer</title>
    <desc>Created with Sketch.</desc>
    <defs>
        <polygon id="path-1" points="0.262785185 0.172874074 13.8272296 0.172874074 13.8272296 8.64197531 0.262785185 8.64197531"></polygon>
    </defs>
    <g id="Design-System" stroke="none" stroke-width="1" fill="none" fill-rule="evenodd">
        <g id="Design-System-Copy" transform="translate(-540.562006, -325.000000)">
            <g id="customer" transform="translate(541.342929, 325.397727)">
                <path d="M11.3315309,18.127442 C10.588321,19.2578123 10.111284,20.5713926 9.97992593,21.9886765 C9.3922716,22.0197877 8.76279012,22.0232444 8.10980247,22.0232444 C4.79819753,22.0232444 2.1157284,21.9402815 2.1157284,18.6286765 C2.1157284,17.1941086 2.62041975,15.8770716 3.46007407,14.8469481 C4.47671605,13.5955901 5.99079012,12.7625037 7.70190123,12.6484296 C8.08214815,13.9412691 8.69019753,15.1373185 9.48180247,16.1916395 C10.0210617,16.9071951 10.6401728,17.5570716 11.3315309,18.127442" id="Fill-1" fill="#4FC95B"></path>
                <path d="M14.1037037,18.6285728 C14.1037037,18.708079 14.1037037,18.7841284 14.0967901,18.8601778 C14.0864198,19.1920296 14.0449383,19.4858568 13.9758025,19.7520296 C13.6750617,20.9100543 12.8661728,21.4804247 11.749284,21.7569679 C11.8944691,20.7959802 12.2401481,19.9041284 12.7451852,19.119437 C12.9007407,18.8740049 13.0735802,18.6424 13.2567901,18.4211654 C13.4500247,18.1930173 13.6577778,17.9752395 13.8790123,17.7747457 C13.6162963,17.6330173 13.3604938,17.4740049 13.1150617,17.308079 C12.8765432,17.1421531 12.6449383,16.9693136 12.4202469,16.7826469 C12.0085432,16.4438815 11.6251852,16.0705481 11.2795062,15.6661037 C10.5535802,14.8330173 9.9762963,13.8685728 9.58222222,12.8177086 C10.8508642,13.1357333 11.957037,13.8616593 12.7555556,14.8433877 C13.0217284,15.1683259 13.2567901,15.5243753 13.4469136,15.9011654 C13.5817284,16.1638815 13.6992593,16.4369679 13.7925926,16.7204247 C13.8928395,17.0177086 13.9723457,17.3288198 14.0241975,17.6503012 C14.0345679,17.7228938 14.0449383,17.7954864 14.054963,17.868079 C14.0864198,18.1169679 14.1037037,18.3693136 14.1037037,18.6285728" id="Fill-3" fill="#4FC95B"></path>
                <path d="M7.70190123,12.6483951 C8.08214815,13.9412346 8.69019753,15.137284 9.48180247,16.1916049 C9.03587654,16.2711111 8.57612346,16.3091358 8.10980247,16.3091358 C6.37795062,16.3091358 4.77365432,15.7698765 3.46007407,14.8469136 C1.36906173,13.3777778 0.000172839506,10.9476543 0.000172839506,8.19950617 C0.000172839506,3.72296296 3.62980247,0.0933333333 8.10980247,0.0933333333 C9.27474074,0.0933333333 10.3843704,0.338765432 11.3864938,0.784691358 C8.85992593,2.84148148 7.24560494,5.97333333 7.24560494,9.47851852 C7.24560494,10.5777778 7.40461728,11.6424691 7.70190123,12.6483951" id="Fill-5" fill="#170409"></path>
                <path d="M16.2155951,8.1994716 C16.2155951,10.9476198 14.8470519,13.3777432 12.7553481,14.8434222 C12.2955951,15.1683605 11.8012741,15.4449037 11.2796444,15.6661383 C10.5537185,14.8330519 9.97608889,13.8686074 9.58236049,12.8177432 C9.18828642,11.7807062 8.97396543,10.6537926 8.97396543,9.47848395 C8.97396543,6.28095309 10.5637432,3.44984198 12.9973235,1.73527407 C14.9542123,3.21132346 16.2155951,5.55848395 16.2155951,8.1994716" id="Fill-7" fill="#170409"></path>
                <g id="Group-11" transform="translate(11.407407, 17.601975)">
                    <mask id="mask-2" fill="white">
                        <use xlink:href="#path-1"></use>
                    </mask>
                    <g id="Clip-10"></g>
                    <path d="M13.8272296,5.17830617 C13.8272296,8.3170716 11.7600691,8.64200988 7.04500741,8.64200988 C2.3296,8.64200988 0.262785185,8.3170716 0.262785185,5.17830617 C0.262785185,4.82917037 0.290439506,4.48694815 0.341945679,4.1550963 C0.487130864,3.19410864 0.832809877,2.30225679 1.33784691,1.51756543 C1.49305679,1.27213333 1.6658963,1.0405284 1.84945185,0.819293827 C2.04268642,0.591145679 2.25043951,0.373367901 2.4713284,0.172874074 C2.53009383,0.207441975 2.58885926,0.238553086 2.64762469,0.266207407 C3.96155062,0.964479012 5.45834074,1.3550963 7.04500741,1.3550963 C8.70080988,1.3550963 10.2598222,0.926454321 11.6179951,0.172874074 C11.8395753,0.373367901 12.0469827,0.591145679 12.2402173,0.819293827 C12.4234272,1.0405284 12.5962667,1.27213333 12.7521679,1.51756543 C13.4328099,2.57534321 13.8272296,3.83015802 13.8272296,5.17830617" id="Fill-9" fill="#4FC95B" mask="url(#mask-2)"></path>
                </g>
                <path d="M27.9308642,9.47855309 C27.9308642,12.4168247 26.5896296,15.0439852 24.4844444,16.7827506 C24.2597531,16.9694173 24.0281481,17.1422568 23.7896296,17.3081827 C23.5441975,17.4741086 23.2883951,17.633121 23.025679,17.7748494 C21.6671605,18.5284296 20.1081481,18.9570716 18.4523457,18.9570716 C16.865679,18.9570716 15.3688889,18.5664543 14.054963,17.8681827 C13.9961975,17.8405284 13.9377778,17.8094173 13.8790123,17.7748494 C13.6162963,17.633121 13.3604938,17.4741086 13.1150617,17.3081827 C12.8765432,17.1422568 12.6449383,16.9694173 12.4202469,16.7827506 C12.0085432,16.4439852 11.6251852,16.0706519 11.2795062,15.6662074 C10.5535802,14.833121 9.9762963,13.8686765 9.58222222,12.8178123 C9.18814815,11.7807753 8.97382716,10.6538617 8.97382716,9.47855309 C8.97382716,6.28102222 10.5639506,3.44991111 12.9975309,1.73534321 C14.542716,0.642997531 16.4232099,3.45679012e-05 18.4523457,3.45679012e-05 C23.6790123,3.45679012e-05 27.9308642,4.25188642 27.9308642,9.47855309" id="Fill-12" fill="#170409"></path>
            </g>
        </g>
    </g>
</svg>