<?xml version="1.0" encoding="UTF-8"?>
<svg width="47px" height="39px" viewBox="0 0 47 39" version="1.1" xmlns="http://www.w3.org/2000/svg" xmlns:xlink="http://www.w3.org/1999/xlink">
    <!-- Generator: Sketch 52.2 (67145) - http://www.bohemiancoding.com/sketch -->
    <title>Group 26</title>
    <desc>Created with Sketch.</desc>
    <defs>
        <polygon id="path-1" points="0 0.0892125 36.2757525 0.0892125 36.2757525 15.004275 0 15.004275"></polygon>
        <polygon id="path-3" points="0 0.43173 36.2757525 0.43173 36.2757525 15.3467925 0 15.3467925"></polygon>
        <polygon id="path-5" points="0 0.07063875 36.2757525 0.07063875 36.2757525 14.9857012 0 14.9857012"></polygon>
        <polygon id="path-7" points="0 0.4134 36.2757525 0.4134 36.2757525 15.3282187 0 15.3282187"></polygon>
        <polygon id="path-9" points="0.137865 0.07863375 32.1130875 0.07863375 32.1130875 21.9375 0.137865 21.9375"></polygon>
    </defs>
    <g id="landingpage" stroke="none" stroke-width="1" fill="none" fill-rule="evenodd">
        <g id="Desktop-HD" transform="translate(-1077.972758, -1489.292295)">
            <g id="Group-26" transform="translate(1078.610209, 1488.926536)">
                <path d="M18.1378275,34.5787162 C8.240115,34.5787162 0.4874025,31.5172162 0.4874025,27.6089287 C0.4874025,23.7001537 8.240115,20.6386537 18.1378275,20.6386537 C28.03554,20.6386537 35.7882525,23.7001537 35.7882525,27.6089287 C35.7882525,31.5172162 28.03554,34.5787162 18.1378275,34.5787162" id="Fill-1" fill="#4FC95B"></path>
                <g id="Group-5" transform="translate(0.000000, 20.061844)">
                    <mask id="mask-2" fill="white">
                        <use xlink:href="#path-1"></use>
                    </mask>
                    <g id="Clip-4"></g>
                    <path d="M18.1378275,0.0892125 C13.438815,0.0892125 9.006465,0.78585 5.65734,2.0509125 C2.0093775,3.429075 -9.75e-05,5.3805375 -9.75e-05,7.5469875 C-9.75e-05,9.71295 2.0093775,11.6649 5.65734,13.0430625 C9.006465,14.308125 13.438815,15.004275 18.1378275,15.004275 C22.8373275,15.004275 27.26919,14.308125 30.6188025,13.0430625 C34.266765,11.6649 36.2757525,9.71295 36.2757525,7.5469875 C36.2757525,5.3805375 34.266765,3.429075 30.6188025,2.0509125 C27.26919,0.78585 22.8373275,0.0892125 18.1378275,0.0892125 M18.1378275,1.0642125 C27.61629,1.0642125 35.3007525,3.9667875 35.3007525,7.5469875 C35.3007525,11.1271875 27.61629,14.029275 18.1378275,14.029275 C8.659365,14.029275 0.9749025,11.1271875 0.9749025,7.5469875 C0.9749025,3.9667875 8.659365,1.0642125 18.1378275,1.0642125" id="Fill-3" fill="#FFFFFF" mask="url(#mask-2)"></path>
                </g>
                <path d="M18.1378275,28.0962337 C8.240115,28.0962337 0.4874025,25.0347337 0.4874025,21.1259587 C0.4874025,17.2176712 8.240115,14.1561712 18.1378275,14.1561712 C28.03554,14.1561712 35.7882525,17.2176712 35.7882525,21.1259587 C35.7882525,25.0347337 28.03554,28.0962337 18.1378275,28.0962337" id="Fill-6" fill="#4FC95B"></path>
                <g id="Group-10" transform="translate(0.000000, 13.236844)">
                    <mask id="mask-4" fill="white">
                        <use xlink:href="#path-3"></use>
                    </mask>
                    <g id="Clip-9"></g>
                    <path d="M18.1378275,0.43173 C13.438815,0.43173 9.006465,1.1283675 5.65734,2.39343 C2.0093775,3.7715925 -9.75e-05,5.723055 -9.75e-05,7.8890175 C-9.75e-05,10.0554675 2.0093775,12.0074175 5.65734,13.3850925 C9.006465,14.650155 13.438815,15.3467925 18.1378275,15.3467925 C22.8373275,15.3467925 27.26919,14.650155 30.6188025,13.3850925 C34.266765,12.0074175 36.2757525,10.0554675 36.2757525,7.8890175 C36.2757525,5.723055 34.266765,3.7715925 30.6188025,2.39343 C27.26919,1.1283675 22.8373275,0.43173 18.1378275,0.43173 M18.1378275,1.40673 C27.61629,1.40673 35.3007525,4.309305 35.3007525,7.8890175 C35.3007525,11.469705 27.61629,14.3717925 18.1378275,14.3717925 C8.659365,14.3717925 0.9749025,11.469705 0.9749025,7.8890175 C0.9749025,4.309305 8.659365,1.40673 18.1378275,1.40673" id="Fill-8" fill="#FFFFFF" mask="url(#mask-4)"></path>
                </g>
                <path d="M18.1378275,21.3976425 C8.240115,21.3976425 0.4874025,18.3361425 0.4874025,14.427855 C0.4874025,10.51908 8.240115,7.45758 18.1378275,7.45758 C28.03554,7.45758 35.7882525,10.51908 35.7882525,14.427855 C35.7882525,18.3361425 28.03554,21.3976425 18.1378275,21.3976425" id="Fill-11" fill="#4FC95B"></path>
                <g id="Group-15" transform="translate(0.000000, 6.899344)">
                    <mask id="mask-6" fill="white">
                        <use xlink:href="#path-5"></use>
                    </mask>
                    <g id="Clip-14"></g>
                    <path d="M18.1378275,0.07063875 C13.438815,0.07063875 9.006465,0.76727625 5.65734,2.03233875 C2.0093775,3.41050125 -9.75e-05,5.36196375 -9.75e-05,7.52841375 C-9.75e-05,9.69437625 2.0093775,11.6463262 5.65734,13.0240012 C9.006465,14.2895512 13.438815,14.9857012 18.1378275,14.9857012 C22.8373275,14.9857012 27.26919,14.2895512 30.6188025,13.0240012 C34.266765,11.6463262 36.2757525,9.69437625 36.2757525,7.52841375 C36.2757525,5.36196375 34.266765,3.41050125 30.6188025,2.03233875 C27.26919,0.76727625 22.8373275,0.07063875 18.1378275,0.07063875 M18.1378275,1.04563875 C27.61629,1.04563875 35.3007525,3.94821375 35.3007525,7.52841375 C35.3007525,11.1086137 27.61629,14.0107012 18.1378275,14.0107012 C8.659365,14.0107012 0.9749025,11.1086137 0.9749025,7.52841375 C0.9749025,3.94821375 8.659365,1.04563875 18.1378275,1.04563875" id="Fill-13" fill="#FFFFFF" mask="url(#mask-6)"></path>
                </g>
                <path d="M18.1378275,14.91516 C8.240115,14.91516 0.4874025,11.85366 0.4874025,7.944885 C0.4874025,4.0365975 8.240115,0.9750975 18.1378275,0.9750975 C28.03554,0.9750975 35.7882525,4.0365975 35.7882525,7.944885 C35.7882525,11.85366 28.03554,14.91516 18.1378275,14.91516" id="Fill-16" fill="#4FC95B"></path>
                <g id="Group-20" transform="translate(0.000000, 0.074344)">
                    <mask id="mask-8" fill="white">
                        <use xlink:href="#path-7"></use>
                    </mask>
                    <g id="Clip-19"></g>
                    <path d="M18.1378275,0.41315625 C13.438815,0.41315625 9.006465,1.10979375 5.65734,2.37485625 C2.0093775,3.75253125 -9.75e-05,5.70448125 -9.75e-05,7.87044375 C-9.75e-05,10.0368937 2.0093775,11.9888437 5.65734,13.3665187 C9.006465,14.6315812 13.438815,15.3282187 18.1378275,15.3282187 C22.8373275,15.3282187 27.26919,14.6315812 30.6188025,13.3665187 C34.266765,11.9888437 36.2757525,10.0368937 36.2757525,7.87044375 C36.2757525,5.70448125 34.266765,3.75253125 30.6188025,2.37485625 C27.26919,1.10979375 22.8373275,0.41315625 18.1378275,0.41315625 M18.1378275,1.38815625 C27.61629,1.38815625 35.3007525,4.29073125 35.3007525,7.87044375 C35.3007525,11.4511312 27.61629,14.3532187 18.1378275,14.3532187 C8.659365,14.3532187 0.9749025,11.4511312 0.9749025,7.87044375 C0.9749025,4.29073125 8.659365,1.38815625 18.1378275,1.38815625" id="Fill-18" fill="#FFFFFF" mask="url(#mask-8)"></path>
                </g>
                <g id="Group-23" transform="translate(13.650000, 16.649344)">
                    <mask id="mask-10" fill="white">
                        <use xlink:href="#path-9"></use>
                    </mask>
                    <g id="Clip-22"></g>
                    <path d="M6.315465,18.5358712 L24.6908025,18.5358712 C26.544765,18.5358712 28.0535775,17.0275462 28.0535775,15.1735837 C28.0535775,13.7320462 27.1341525,12.4528462 25.76574,11.9906962 L24.4753275,11.5548712 L24.3895275,10.1957212 C24.1750275,6.79882125 21.34314,4.13853375 17.94234,4.13853375 C15.32934,4.13853375 12.9869025,5.69560875 11.974365,8.10580875 L11.309415,9.68872125 L9.638265,9.29628375 C9.451065,9.25192125 9.2760525,9.23047125 9.1054275,9.23047125 C7.82574,9.23047125 6.7839525,10.2717712 6.7839525,11.5514587 C6.7839525,11.7513337 6.81369,11.9594962 6.87219,12.1710712 L7.382115,14.0216212 L5.562765,14.6344087 C4.7462025,14.9098462 4.1972775,15.6718087 4.1972775,16.5317587 C4.1972775,17.6203462 5.05089,18.4978462 6.14094,18.5305087 L6.315465,18.5358712 Z M24.6908025,21.8264962 L3.162315,21.7865212 C1.3454025,20.7422962 0.137865,18.7859587 0.137865,16.5317587 C0.137865,14.5174087 1.1309025,12.6790462 2.72454,11.5655962 L2.72454,11.5514587 C2.72454,8.09508375 5.48769,5.27148375 8.92164,5.17349625 C10.80729,2.03643375 14.205165,0.07863375 17.94234,0.07863375 C23.0528025,0.07863375 27.37449,3.76754625 28.2856275,8.68252125 C30.6188025,9.97195875 32.1134775,12.4401712 32.1134775,15.1735837 C32.1134775,19.2661462 28.783365,22.5957712 24.6908025,21.8264962 Z" id="Fill-21" fill="#FFFFFF" mask="url(#mask-10)"></path>
                </g>
                <path d="M40.0653338,26.7168037 C39.7850213,22.2756787 36.1043963,18.7578788 31.5920963,18.7578788 C28.0640588,18.7578788 25.0386338,20.9082412 23.7526088,23.9692537 C23.4323213,23.8936912 23.0988713,23.8498162 22.7551838,23.8498162 C20.3522963,23.8498162 18.4042462,25.7978662 18.4042462,28.2007537 C18.4042462,28.6029412 18.4632338,28.9905037 18.5651212,29.3600287 C16.9690462,29.8977412 15.8180587,31.4036287 15.8180587,33.1810537 C15.8180587,35.3679787 17.5589212,37.1439412 19.7297588,37.2087787 L19.7268338,37.2151162 L38.3410463,37.2151162 C41.3191838,37.2151162 43.7332838,34.8010162 43.7332838,31.8228787 C43.7332838,29.4482662 42.1966838,27.4368412 40.0653338,26.7168037" id="Fill-24" fill="#4FC95B"></path>
            </g>
        </g>
    </g>
</svg>