<?xml version="1.0" encoding="UTF-8"?>
<svg width="36px" height="26px" viewBox="0 0 36 26" version="1.1" xmlns="http://www.w3.org/2000/svg" xmlns:xlink="http://www.w3.org/1999/xlink">
    <!-- Generator: Sketch 52.2 (67145) - http://www.bohemiancoding.com/sketch -->
    <title>email</title>
    <desc>Created with Sketch.</desc>
    <defs>
        <polygon id="path-1" points="0 0.198492063 27.1863095 0.198492063 27.1863095 18.4088095 0 18.4088095"></polygon>
    </defs>
    <g id="Design-System" stroke="none" stroke-width="1" fill="none" fill-rule="evenodd">
        <g id="Design-System-Copy" transform="translate(-388.562006, -327.000000)">
            <g id="email" transform="translate(388.796873, 327.210227)">
                <g id="Group-3" transform="translate(0.000000, 0.198413)">
                    <mask id="mask-2" fill="white">
                        <use xlink:href="#path-1"></use>
                    </mask>
                    <g id="Clip-2"></g>
                    <path d="M27.1863095,1.3334127 L27.1863095,4.42865079 L7.53551587,4.42865079 C6.96011905,4.42865079 6.41646825,4.67468254 6.05535714,5.08738095 C5.84146825,5.32150794 5.69027778,5.59531746 5.60694444,5.89690476 C5.5593254,6.06753968 5.53551587,6.24611111 5.53551587,6.42865079 L5.53551587,18.4088095 L1.13511905,18.4088095 C0.508134921,18.4088095 -0.000198412698,17.900873 -0.000198412698,17.2778571 L-0.000198412698,1.3334127 C-0.000198412698,1.04373016 0.10734127,0.777857143 0.289880952,0.579444444 C0.495833333,0.34531746 0.797420635,0.198492063 1.13511905,0.198492063 L26.0517857,0.198492063 C26.3886905,0.198492063 26.6902778,0.34531746 26.8970238,0.579444444 C27.0791667,0.777857143 27.1863095,1.04373016 27.1863095,1.3334127" id="Fill-1" fill="#170409" mask="url(#mask-2)"></path>
                </g>
                <path d="M26.8968254,0.777896825 L23.047619,4.62710317 L7.53571429,4.62710317 C6.96031746,4.62710317 6.41666667,4.87313492 6.05515873,5.28583333 C5.84126984,5.51996032 5.69047619,5.79376984 5.60714286,6.09535714 L0.28968254,0.777896825 C0.496031746,0.543769841 0.797222222,0.396944444 1.13492063,0.396944444 L26.0515873,0.396944444 C26.3888889,0.396944444 26.6900794,0.543769841 26.8968254,0.777896825" id="Fill-4" fill="#4FC95B"></path>
                <path d="M35.2658333,6.62698413 L35.2658333,23.5992063 C35.2658333,24.2619048 34.7261508,24.8015873 34.0594841,24.8015873 L7.5356746,24.8015873 C6.86900794,24.8015873 6.3293254,24.2619048 6.3293254,23.5992063 L6.3293254,6.62698413 C6.3293254,6.31746032 6.44440476,6.03571429 6.63884921,5.82539683 C6.85710317,5.57539683 7.17853175,5.42063492 7.5356746,5.42063492 L34.0594841,5.42063492 C34.416627,5.42063492 34.7380556,5.57539683 34.9563095,5.82539683 C35.150754,6.03571429 35.2658333,6.31746032 35.2658333,6.62698413" id="Fill-6" fill="#170409"></path>
                <path d="M21.4284921,19.3571825 C21.0792857,19.7024206 20.5157937,19.7024206 20.1705556,19.3571825 L6.63880952,5.82543651 C6.85706349,5.57543651 7.17849206,5.4206746 7.53563492,5.4206746 L34.0594444,5.4206746 C34.4165873,5.4206746 34.7380159,5.57543651 34.9562698,5.82543651 L21.4284921,19.3571825 Z" id="Fill-8" fill="#4FC95B"></path>
                <path d="M34.9561905,5.82539683 L21.4284127,19.3571429 C21.0792063,19.702381 20.5157143,19.702381 20.1704762,19.3571429 L6.63912698,5.82539683 C6.85698413,5.57539683 7.1784127,5.42063492 7.53555556,5.42063492 L34.0593651,5.42063492 C34.4169048,5.42063492 34.7379365,5.57539683 34.9561905,5.82539683" id="Fill-10" fill="#4FC95B"></path>
            </g>
        </g>
    </g>
</svg>