<?xml version="1.0" encoding="UTF-8"?>
<svg width="19px" height="14px" viewBox="0 0 19 14" version="1.1" xmlns="http://www.w3.org/2000/svg" xmlns:xlink="http://www.w3.org/1999/xlink">
    <!-- Generator: Sketch 52.2 (67145) - http://www.bohemiancoding.com/sketch -->
    <title>Group 12</title>
    <desc>Created with Sketch.</desc>
    <defs>
        <polygon id="path-1" points="0 0.104938002 14.372751 0.104938002 14.372751 9.7322969 0 9.7322969"></polygon>
    </defs>
    <g id="Mockups_web" stroke="none" stroke-width="1" fill="none" fill-rule="evenodd">
        <g id="desktop_coupon_create" transform="translate(-67.000000, -676.000000)">
            <g id="Group-12" transform="translate(67.120359, 676.038325)">
                <g id="Group-3" transform="translate(0.000000, 0.104896)">
                    <mask id="mask-2" fill="white">
                        <use xlink:href="#path-1"></use>
                    </mask>
                    <g id="Clip-2"></g>
                    <path d="M14.372751,0.704943372 L14.372751,2.34132165 L3.98384684,2.34132165 C3.67964832,2.34132165 3.39223316,2.47139275 3.20132236,2.68957652 C3.08824442,2.81335385 3.00831364,2.95811039 2.9642573,3.11755238 C2.93908225,3.20776298 2.92649472,3.30216941 2.92649472,3.39867378 L2.92649472,9.7322969 L0.600110266,9.7322969 C0.268638768,9.7322969 -0.000104896044,9.46376302 -0.000104896044,9.13438945 L-0.000104896044,0.704943372 C-0.000104896044,0.551795148 0.0567487597,0.41123445 0.15325312,0.306338406 C0.262135213,0.182561074 0.4215772,0.104938002 0.600110266,0.104938002 L13.7729554,0.104938002 C13.9510689,0.104938002 14.1105109,0.182561074 14.2198126,0.306338406 C14.3161072,0.41123445 14.372751,0.551795148 14.372751,0.704943372" id="Fill-1" fill="#FFFFFF" mask="url(#mask-2)"></path>
                </g>
                <path d="M14.2197077,0.411255429 L12.1847244,2.44623868 L3.98395174,2.44623868 C3.67975321,2.44623868 3.39233805,2.57630977 3.20121746,2.79449354 C3.08813953,2.91827087 3.00841853,3.06302741 2.9643622,3.2224694 L0.153148224,0.411255429 C0.262240109,0.287478097 0.421472304,0.209855025 0.60000537,0.209855025 L13.7728505,0.209855025 C13.9511738,0.209855025 14.110406,0.287478097 14.2197077,0.411255429" id="Fill-4" fill="#EAEAEA"></path>
                <path d="M18.6442018,12.4763354 C18.6442018,12.8266882 18.3588846,13.1120055 18.0064339,13.1120055 L3.98393076,13.1120055 C3.63148005,13.1120055 3.34616282,12.8266882 3.34616282,12.4763354 L3.34616282,3.50352786 C3.34616282,3.33989003 3.40700252,3.19093765 3.50980064,3.07974784 C3.62518629,2.94757883 3.79511788,2.86575991 3.98393076,2.86575991 L18.0064339,2.86575991 C18.1952468,2.86575991 18.3651784,2.94757883 18.480564,3.07974784 C18.5833621,3.19093765 18.6442018,3.33989003 18.6442018,3.50352786 L18.6442018,12.4763354 Z" id="Fill-6" fill="#FFFFFF"></path>
                <path d="M11.3287308,10.233679 C11.1441137,10.4161981 10.846209,10.4161981 10.6636898,10.233679 L3.50977966,3.07976882 C3.62516531,2.94759981 3.7950969,2.86578089 3.98390978,2.86578089 L18.0064129,2.86578089 C18.1952258,2.86578089 18.3651574,2.94759981 18.480543,3.07976882 L11.3287308,10.233679 Z" id="Fill-8" fill="#4FC95B"></path>
                <path d="M18.4805011,3.07974784 L11.3286888,10.233658 C11.1440718,10.4161771 10.846167,10.4161771 10.6636479,10.233658 L3.5099475,3.07974784 C3.62512335,2.94757883 3.79505495,2.86575991 3.98386782,2.86575991 L18.0063709,2.86575991 C18.1953936,2.86575991 18.3651154,2.94757883 18.4805011,3.07974784" id="Fill-10" fill="#EAEAEA"></path>
            </g>
        </g>
    </g>
</svg>