<?xml version="1.0" encoding="UTF-8"?>
<svg width="35px" height="28px" viewBox="0 0 35 28" version="1.1" xmlns="http://www.w3.org/2000/svg" xmlns:xlink="http://www.w3.org/1999/xlink">
    <!-- Generator: Sketch 52.2 (67145) - http://www.bohemiancoding.com/sketch -->
    <title>history</title>
    <desc>Created with Sketch.</desc>
    <defs>
        <polygon id="path-1" points="0.43122051 0.368292428 26.9681792 0.368292428 26.9681792 27.5019026 0.43122051 27.5019026"></polygon>
        <polygon id="path-3" points="0 0.167481925 14.9738282 0.167481925 14.9738282 8.38390839 0 8.38390839"></polygon>
    </defs>
    <g id="Design-System" stroke="none" stroke-width="1" fill="none" fill-rule="evenodd">
        <g id="Design-System-Copy" transform="translate(-24.562006, -326.000000)">
            <g id="history" transform="translate(25.431733, 325.710227)">
                <g id="Group-3" transform="translate(6.992009, 0.097888)">
                    <mask id="mask-2" fill="white">
                        <use xlink:href="#path-1"></use>
                    </mask>
                    <g id="Clip-2"></g>
                    <path d="M19.4867761,20.0158381 C19.1325143,20.3700999 18.5545082,20.3700999 18.2002464,20.0158381 L12.7558019,14.5713936 C12.5693484,14.3849401 12.4807829,14.1378891 12.4947669,13.8954994 C12.4901056,13.8721927 12.4901056,13.848886 12.4901056,13.8255793 L12.4901056,6.12970795 C12.4901056,5.63094463 12.9003035,5.22074677 13.4037281,5.22074677 C13.6554404,5.22074677 13.8791847,5.32329623 14.046993,5.48644311 C14.2101398,5.65425133 14.3126893,5.87799562 14.3126893,6.12970795 L14.3126893,13.5505603 L19.4867761,18.7246471 C19.8410379,19.0789089 19.8410379,19.6615763 19.4867761,20.0158381 M13.4037281,0.368292428 C7.29737348,0.368292428 2.12794806,4.40501237 0.43122051,9.95666762 L7.25076008,9.95666762 C8.11310788,9.95666762 8.88689022,10.4740763 9.21784532,11.2711653 C9.54880042,12.0682544 9.36700818,12.9818769 8.75637272,13.5925124 L2.00209189,20.3467932 C1.88555841,20.4633267 1.75504091,20.5658761 1.61520072,20.6497803 C3.95053177,24.7424363 8.35549753,27.5019492 13.4037281,27.5019492 C20.8945006,27.5019492 26.9682258,21.4282239 26.9682258,13.9374515 C26.9682258,6.44201769 20.8945006,0.368292428 13.4037281,0.368292428" id="Fill-1" fill="#170409" mask="url(#mask-2)"></path>
                </g>
                <g id="Group-6" transform="translate(0.000000, 11.285103)">
                    <mask id="mask-4" fill="white">
                        <use xlink:href="#path-3"></use>
                    </mask>
                    <g id="Clip-5"></g>
                    <path d="M14.7582667,1.41532249 L8.00351979,8.16960331 C7.71824581,8.45534342 7.25537481,8.45534342 6.97010084,8.16960331 L0.215353881,1.41532249 C-0.245186454,0.954782154 0.0811073059,0.167481925 0.732296423,0.167481925 L14.2413242,0.167481925 C14.8925133,0.167481925 15.2188071,0.954782154 14.7582667,1.41532249" id="Fill-4" fill="#170409" mask="url(#mask-4)"></path>
                </g>
                <path d="M26.4787852,20.1137262 C26.1245234,20.467988 25.5465173,20.467988 25.1922555,20.1137262 L19.7478111,14.6692818 C19.5613575,14.4828282 19.472792,14.2357772 19.4867761,13.9933876 C19.4821147,13.9700809 19.4821147,13.9467742 19.4821147,13.9234675 L19.4821147,6.22759608 C19.4821147,5.72883276 19.8923126,5.31863489 20.3957373,5.31863489 C20.6474496,5.31863489 20.8711939,5.42118436 21.0390021,5.58433124 C21.202149,5.75213946 21.3046984,5.97588375 21.3046984,6.22759608 L21.3046984,13.6484484 L26.4787852,18.8225352 C26.833047,19.176797 26.833047,19.7594644 26.4787852,20.1137262" id="Fill-7" fill="#4FC95B"></path>
            </g>
        </g>
    </g>
</svg>