<?xml version="1.0" encoding="UTF-8"?>
<svg width="23px" height="29px" viewBox="0 0 23 29" version="1.1" xmlns="http://www.w3.org/2000/svg" xmlns:xlink="http://www.w3.org/1999/xlink">
    <!-- Generator: Sketch 52.2 (67145) - http://www.bohemiancoding.com/sketch -->
    <title>location</title>
    <desc>Created with Sketch.</desc>
    <defs>
        <polygon id="path-1" points="0 0.375615133 22.0604517 0.375615133 22.0604517 28.4144717 0 28.4144717"></polygon>
    </defs>
    <g id="Design-System" stroke="none" stroke-width="1" fill="none" fill-rule="evenodd">
        <g id="Design-System-Copy" transform="translate(-102.562006, -325.000000)">
            <g id="location" transform="translate(102.704761, 325.293561)">
                <g id="Group-3" transform="translate(0.000000, 0.229009)">
                    <mask id="mask-2" fill="white">
                        <use xlink:href="#path-1"></use>
                    </mask>
                    <g id="Clip-2"></g>
                    <path d="M11.0271728,16.3300387 C7.87135277,16.3300387 5.31405032,13.7727363 5.31405032,10.6169162 C5.31405032,7.46109616 7.87135277,4.90379371 11.0271728,4.90379371 C14.1829929,4.90379371 16.7402953,7.46109616 16.7402953,10.6169162 C16.7402953,13.7727363 14.1829929,16.3300387 11.0271728,16.3300387 M11.0271728,0.375615133 C4.93922111,0.375615133 -6.04563228e-05,5.3148967 -6.04563228e-05,11.4028484 C-6.04563228e-05,17.4968457 7.77825003,28.4146531 11.0271728,28.4146531 C14.3764531,28.4146531 22.0604517,17.4968457 22.0604517,11.4028484 C22.0604517,5.3148967 17.1211702,0.375615133 11.0271728,0.375615133" id="Fill-1" fill="#170409" mask="url(#mask-2)"></path>
                </g>
                <path d="M15.0657761,10.847013 C15.0657761,8.61738379 13.258132,6.80913518 11.0278983,6.80913518 C8.79826911,6.80913518 6.99062506,8.61738379 6.99062506,10.847013 C6.99062506,13.0766422 8.79826911,14.8848908 11.0278983,14.8848908 C13.258132,14.8848908 15.0657761,13.0766422 15.0657761,10.847013" id="Fill-4" fill="#4FC95B"></path>
            </g>
        </g>
    </g>
</svg>