<?xml version="1.0" encoding="UTF-8"?>
<svg width="28px" height="39px" viewBox="0 0 28 39" version="1.1" xmlns="http://www.w3.org/2000/svg" xmlns:xlink="http://www.w3.org/1999/xlink">
    <!-- Generator: Sketch 52.2 (67145) - http://www.bohemiancoding.com/sketch -->
    <title>icon_lock</title>
    <desc>Created with Sketch.</desc>
    <defs>
        <polygon id="path-1" points="0 0 27.4388163 0 27.4388163 38.1053789 0 38.1053789"></polygon>
    </defs>
    <g id="landingpage" stroke="none" stroke-width="1" fill="none" fill-rule="evenodd">
        <g id="Desktop-HD" transform="translate(-729.972758, -1685.292295)">
            <g id="icon_lock" transform="translate(730.121124, 1685.719875)">
                <mask id="mask-2" fill="white">
                    <use xlink:href="#path-1"></use>
                </mask>
                <g id="Clip-2"></g>
                <path d="M18.6044858,17.4902906 L8.82927941,17.4902906 L8.82927941,10.0727213 C8.82927941,7.37834958 11.0230061,5.18462291 13.7168826,5.18462291 C16.4157111,5.18462291 18.6044858,7.37834958 18.6044858,10.0727213 L18.6044858,17.4902906 Z M13.7168826,32.1580522 C11.0180541,32.1580522 8.82927941,29.9692775 8.82927941,27.270449 C8.82927941,24.5716205 11.0180541,22.3828458 13.7168826,22.3828458 C16.4206631,22.3828458 18.6044858,24.5716205 18.6044858,27.270449 C18.6044858,29.9692775 16.4206631,32.1580522 13.7168826,32.1580522 Z M25.7204796,17.4902906 L23.7941598,17.4902906 L23.7941598,10.0727213 C23.7941598,4.51610575 19.2734982,-9.90395788e-05 13.7168826,-9.90395788e-05 C8.16571423,-9.90395788e-05 3.64455746,4.51610575 3.64455746,10.0727213 L3.64455746,17.4902906 L1.71823765,17.4902906 C0.767457696,17.4902906 -9.90395788e-05,18.2627993 -9.90395788e-05,19.2135792 L-9.90395788e-05,36.3870422 C-9.90395788e-05,37.3378222 0.767457696,38.1053789 1.71823765,38.1053789 L25.7204796,38.1053789 C26.6712595,38.1053789 27.4388163,37.3378222 27.4388163,36.3870422 L27.4388163,19.2135792 C27.4388163,18.2627993 26.6712595,17.4902906 25.7204796,17.4902906 Z" id="Fill-1" fill="#4FC95B" mask="url(#mask-2)"></path>
            </g>
        </g>
    </g>
</svg>