<?xml version="1.0" encoding="UTF-8"?>
<svg width="31px" height="21px" viewBox="0 0 31 21" version="1.1" xmlns="http://www.w3.org/2000/svg" xmlns:xlink="http://www.w3.org/1999/xlink">
    <!-- Generator: Sketch 52.2 (67145) - http://www.bohemiancoding.com/sketch -->
    <title>mail</title>
    <desc>Created with Sketch.</desc>
    <defs>
        <polygon id="path-1" points="0.000164383562 0.0657534247 29.9671233 0.0657534247 29.9671233 20.1369041 0.000164383562 20.1369041"></polygon>
    </defs>
    <g id="Design-System" stroke="none" stroke-width="1" fill="none" fill-rule="evenodd">
        <g id="Design-System-Copy" transform="translate(-391.562006, -383.000000)">
            <g id="mail" transform="translate(391.796873, 382.806388)">
                <g id="Group-3" transform="translate(0.000000, 0.345205)">
                    <mask id="mask-2" fill="white">
                        <use xlink:href="#path-1"></use>
                    </mask>
                    <g id="Clip-2"></g>
                    <path d="M29.9672877,1.3149863 L29.9672877,18.8921096 C29.9672877,19.578 29.4083836,20.1369041 28.7179726,20.1369041 L1.24906849,20.1369041 C0.558657534,20.1369041 0.000164383562,19.578 0.000164383562,18.8921096 L0.000164383562,1.3149863 C0.000164383562,0.994438356 0.118931507,0.702657534 0.32030137,0.484849315 C0.546739726,0.225945205 0.879616438,0.0656712329 1.24906849,0.0656712329 L28.7179726,0.0656712329 C29.0874247,0.0656712329 29.4207123,0.225945205 29.6467397,0.484849315 C29.8481096,0.702657534 29.9672877,0.994438356 29.9672877,1.3149863" id="Fill-1" fill="#170409" mask="url(#mask-2)"></path>
                </g>
                <path d="M29.6466164,0.830219178 L15.6370274,14.8439178 C15.2753836,15.2014521 14.6918219,15.2014521 14.3342877,14.8439178 L0.320589041,0.830219178 C0.546616438,0.571315068 0.879493151,0.411041096 1.24894521,0.411041096 L28.7178493,0.411041096 C29.0877123,0.411041096 29.420589,0.571315068 29.6466164,0.830219178" id="Fill-4" fill="#4FC95B"></path>
            </g>
        </g>
    </g>
</svg>