<?xml version="1.0" encoding="UTF-8"?>
<svg width="21px" height="20px" viewBox="0 0 21 20" version="1.1" xmlns="http://www.w3.org/2000/svg" xmlns:xlink="http://www.w3.org/1999/xlink">
    <!-- Generator: Sketch 52.2 (67145) - http://www.bohemiancoding.com/sketch -->
    <title>Group 3</title>
    <desc>Created with Sketch.</desc>
    <defs>
        <polygon id="path-1" points="4.63070019e-05 0.103506952 19.2408062 0.103506952 19.2408062 19.3442623 4.63070019e-05 19.3442623"></polygon>
    </defs>
    <g id="Mockups_web" stroke="none" stroke-width="1" fill="none" fill-rule="evenodd">
        <g id="desktop_coupon_create" transform="translate(-66.000000, -367.000000)">
            <g id="Group-6" transform="translate(66.858782, 366.926299)">
                <g id="Group-3" transform="translate(0.000000, 0.224492)">
                    <mask id="mask-2" fill="white">
                        <use xlink:href="#path-1"></use>
                    </mask>
                    <g id="Clip-2"></g>
                    <path d="M6.37518033,12.968918 C4.58304918,11.1767869 4.58304918,8.27088525 6.37518033,6.4787541 C8.16763934,4.68629508 11.0732131,4.68629508 12.8656721,6.4787541 C14.6581311,8.27088525 14.6581311,11.1767869 12.8656721,12.968918 C11.0732131,14.761377 8.16763934,14.761377 6.37518033,12.968918 M13.8604262,17.6312131 L13.6479672,16.8380984 C14.2755082,16.4826885 14.8663279,16.0394098 15.4014098,15.5046557 C15.9361639,14.9699016 16.3794426,14.3787541 16.7348525,13.7512131 L17.5279672,13.9636721 C17.9955082,14.0892459 18.481082,13.808918 18.6063279,13.3410492 L19.210918,11.084 C19.3361639,10.616459 19.0561639,10.1308852 18.5882951,10.0056393 L17.7941967,9.79285246 C17.8063279,8.33318033 17.4315738,6.87121311 16.6669836,5.57481967 L17.2456721,4.99580328 C17.5882951,4.6535082 17.5882951,4.09285246 17.2456721,3.75022951 L15.5938689,2.09842623 C15.2512459,1.75580328 14.690918,1.75580328 14.3482951,2.09842623 L13.7696066,2.67711475 C12.4732131,1.91252459 11.010918,1.53777049 9.55157377,1.54990164 L9.33845902,0.755803279 C9.21321311,0.288262295 8.72796721,0.00793442623 8.26009836,0.133508197 L6.00337705,0.738098361 C5.53518033,0.863344262 5.25518033,1.34859016 5.3807541,1.81645902 L5.59288525,2.60957377 C4.96567213,2.96498361 4.37419672,3.40793443 3.83977049,3.94301639 C3.30468852,4.47777049 2.8617377,5.06891803 2.506,5.69645902 L1.71321311,5.484 C1.24534426,5.3587541 0.760098361,5.6387541 0.63452459,6.10662295 L0.0299344262,8.36334426 C-0.0953114754,8.83121311 0.184688525,9.31645902 0.652557377,9.44203279 L1.44665574,9.65481967 C1.43452459,11.1141639 1.80927869,12.576459 2.57386885,13.8728525 L1.99518033,14.451541 C1.65255738,14.7941639 1.65255738,15.3548197 1.99518033,15.6971148 L3.64698361,17.3492459 C3.98960656,17.6918689 4.5502623,17.6918689 4.89255738,17.3492459 L5.4712459,16.7702295 C6.76763934,17.5348197 8.22993443,17.9099016 9.68927869,17.8977705 L9.90239344,18.691541 C10.0276393,19.1594098 10.5128852,19.4397377 10.9807541,19.3144918 L13.2378033,18.7095738 C13.7053443,18.5843279 13.9856721,18.0987541 13.8604262,17.6312131" id="Fill-1" fill="#FFFFFF" mask="url(#mask-2)"></path>
                </g>
            </g>
        </g>
    </g>
</svg>