<?xml version="1.0" encoding="UTF-8"?>
<svg width="34px" height="25px" viewBox="0 0 34 25" version="1.1" xmlns="http://www.w3.org/2000/svg" xmlns:xlink="http://www.w3.org/1999/xlink">
    <!-- Generator: Sketch 52.2 (67145) - http://www.bohemiancoding.com/sketch -->
    <title>message-inactive</title>
    <desc>Created with Sketch.</desc>
    <defs>
        <polygon id="path-1" points="0.000152808989 0.283078652 26.3852989 0.283078652 26.3852989 17.956164 0.000152808989 17.956164"></polygon>
    </defs>
    <g id="Design-System" stroke="none" stroke-width="1" fill="none" fill-rule="evenodd">
        <g id="Design-System-Copy" transform="translate(-311.562006, -466.000000)">
            <g id="message-inactive" transform="translate(311.523845, 466.312316)">
                <g id="Group-3" transform="translate(0.000000, 0.099097)">
                    <mask id="mask-2" fill="white">
                        <use xlink:href="#path-1"></use>
                    </mask>
                    <g id="Clip-2"></g>
                    <path d="M25.2254787,17.956164 L1.15997303,17.956164 C0.519321348,17.956164 0.000152808989,17.4369955 0.000152808989,16.7959618 L0.000152808989,1.44286067 C0.000152808989,0.802208989 0.519321348,0.283040449 1.15997303,0.283040449 L25.2254787,0.283040449 C25.8661303,0.283040449 26.3852989,0.802208989 26.3852989,1.44286067 L26.3852989,16.7959618 C26.3852989,17.4369955 25.8661303,17.956164 25.2254787,17.956164" id="Fill-1" fill="#9B9B9B" mask="url(#mask-2)"></path>
                </g>
                <path d="M15.3152809,9.21858427 C15.3152809,8.04653933 14.365191,7.09606742 13.192764,7.09606742 C12.0207191,7.09606742 11.0702472,8.04653933 11.0702472,9.21858427 C11.0702472,10.3906292 12.0207191,11.3411011 13.192764,11.3411011 C14.365191,11.3411011 15.3152809,10.3906292 15.3152809,9.21858427" id="Fill-4" fill="#FFFFFF"></path>
                <path d="M9.163,9.21858427 C9.163,8.04653933 8.21291011,7.09606742 7.04048315,7.09606742 C5.8684382,7.09606742 4.91834831,8.04653933 4.91834831,9.21858427 C4.91834831,10.3906292 5.8684382,11.3411011 7.04048315,11.3411011 C8.21291011,11.3411011 9.163,10.3906292 9.163,9.21858427" id="Fill-6" fill="#FFFFFF"></path>
                <path d="M21.4671798,9.21858427 C21.4671798,8.04653933 20.5170899,7.09606742 19.3446629,7.09606742 C18.172618,7.09606742 17.2225281,8.04653933 17.2225281,9.21858427 C17.2225281,10.3906292 18.172618,11.3411011 19.3446629,11.3411011 C20.5170899,11.3411011 21.4671798,10.3906292 21.4671798,9.21858427" id="Fill-8" fill="#FFFFFF"></path>
                <path d="M32.7883393,24.1665124 L7.25242921,24.1665124 C6.61177753,24.1665124 6.09260899,23.6473438 6.09260899,23.0063101 L6.09260899,6.66835506 C6.09260899,6.02808539 6.61177753,5.50853483 7.25242921,5.50853483 L32.7883393,5.50853483 C33.428991,5.50853483 33.9481596,6.02808539 33.9481596,6.66835506 L33.9481596,23.0063101 C33.9481596,23.6473438 33.428991,24.1665124 32.7883393,24.1665124" id="Fill-10" fill="#4A4A4A"></path>
                <path d="M22.1428247,14.8375618 C22.1428247,13.6655169 21.1927348,12.7150449 20.0203079,12.7150449 C18.8482629,12.7150449 17.898173,13.6655169 17.898173,14.8375618 C17.898173,16.0096067 18.8482629,16.9600787 20.0203079,16.9600787 C21.1927348,16.9600787 22.1428247,16.0096067 22.1428247,14.8375618" id="Fill-12" fill="#FFFFFF"></path>
                <path d="M15.9909258,14.8375618 C15.9909258,13.6655169 15.040836,12.7150449 13.868409,12.7150449 C12.696364,12.7150449 11.7462742,13.6655169 11.7462742,14.8375618 C11.7462742,16.0096067 12.696364,16.9600787 13.868409,16.9600787 C15.040836,16.9600787 15.9909258,16.0096067 15.9909258,14.8375618" id="Fill-14" fill="#FFFFFF"></path>
                <path d="M28.2951056,14.8375618 C28.2951056,13.6655169 27.3446337,12.7150449 26.1722067,12.7150449 C25.0001618,12.7150449 24.0500719,13.6655169 24.0500719,14.8375618 C24.0500719,16.0096067 25.0001618,16.9600787 26.1722067,16.9600787 C27.3446337,16.9600787 28.2951056,16.0096067 28.2951056,14.8375618" id="Fill-16" fill="#FFFFFF"></path>
            </g>
        </g>
    </g>
</svg>