<?xml version="1.0" encoding="UTF-8"?>
<svg width="26px" height="29px" viewBox="0 0 26 29" version="1.1" xmlns="http://www.w3.org/2000/svg" xmlns:xlink="http://www.w3.org/1999/xlink">
    <!-- Generator: Sketch 52.2 (67145) - http://www.bohemiancoding.com/sketch -->
    <title>notification</title>
    <desc>Created with Sketch.</desc>
    <defs>
        <polygon id="path-1" points="4.82548916e-05 0.162136436 25.1779548 0.162136436 25.1779548 27.9149722 4.82548916e-05 27.9149722"></polygon>
        <polygon id="path-3" points="0.183416843 0.415957166 8.58748876 0.415957166 8.58748876 5.3351008 0.183416843 5.3351008"></polygon>
    </defs>
    <g id="Design-System" stroke="none" stroke-width="1" fill="none" fill-rule="evenodd">
        <g id="Design-System-Copy" transform="translate(-100.562006, -380.000000)">
            <g id="notification" transform="translate(100.555061, 379.889722)">
                <g id="Group-3" transform="translate(0.000000, 1.031834)">
                    <mask id="mask-2" fill="white">
                        <use xlink:href="#path-1"></use>
                    </mask>
                    <g id="Clip-2"></g>
                    <path d="M23.7472455,18.0922065 L23.7472455,14.1816301 C23.7472455,9.42369778 20.7675059,5.3635312 16.5736733,3.75905605 C16.3690726,1.73862374 14.6632622,0.162136436 12.5887844,0.162136436 C10.5147891,0.162136436 8.80897871,1.73862374 8.60389543,3.75905605 C4.4100628,5.3635312 1.43080579,9.42369778 1.43080579,14.1816301 L1.43080579,18.0922065 C0.535677552,19.2146153 4.82548916e-05,20.6357218 4.82548916e-05,22.1827737 C4.82548916e-05,23.2945664 0.900967081,24.1954852 2.01275978,24.1954852 L8.59762229,24.1954852 C8.74479971,26.2738234 10.4732899,27.9149722 12.5887844,27.9149722 C14.7047614,27.9149722 16.432769,26.2738234 16.5799465,24.1954852 L23.164809,24.1954852 C24.2766017,24.1954852 25.178003,23.2945664 25.178003,22.1827737 C25.178003,20.6357218 24.6418912,19.2146153 23.7472455,18.0922065" id="Fill-1" fill="#170409" mask="url(#mask-2)"></path>
                </g>
                <g id="Group-6" transform="translate(8.203332, 0.066737)">
                    <mask id="mask-4" fill="white">
                        <use xlink:href="#path-3"></use>
                    </mask>
                    <g id="Clip-5"></g>
                    <path d="M8.58748876,3.54432179 C8.58748876,1.22374405 6.70651309,0.415957166 4.3854528,0.415957166 C2.06487507,0.415957166 0.183416843,1.22374405 0.183416843,3.54432179 C0.183416843,5.86489952 2.06487507,5.26557377 4.3854528,5.26557377 C6.70651309,5.26557377 8.58748876,5.86489952 8.58748876,3.54432179" id="Fill-4" fill="#4FC95B" mask="url(#mask-4)"></path>
                </g>
                <path d="M16.6131458,25.2256306 C16.4891308,27.3425727 14.7360305,29.0194302 12.5877228,29.0194302 C10.4389324,29.0194302 8.68969262,27.3425727 8.5661601,25.2256306 L16.6131458,25.2256306 Z" id="Fill-7" fill="#4FC95B"></path>
            </g>
        </g>
    </g>
</svg>