<?xml version="1.0" encoding="UTF-8"?>
<svg width="23px" height="31px" viewBox="0 0 23 31" version="1.1" xmlns="http://www.w3.org/2000/svg" xmlns:xlink="http://www.w3.org/1999/xlink">
    <!-- Generator: Sketch 52.2 (67145) - http://www.bohemiancoding.com/sketch -->
    <title>password</title>
    <desc>Created with Sketch.</desc>
    <defs>
        <polygon id="path-1" points="0 0.398128571 21.5765536 0.398128571 21.5765536 16.6071429 0 16.6071429"></polygon>
        <polygon id="path-3" points="0.100251786 0.483267857 15.9412518 0.483267857 15.9412518 26.0045161 0.100251786 26.0045161"></polygon>
    </defs>
    <g id="Design-System" stroke="none" stroke-width="1" fill="none" fill-rule="evenodd">
        <g id="Design-System-Copy" transform="translate(-244.562006, -377.000000)">
            <g id="password" transform="translate(245.431733, 376.806388)">
                <g id="Group-3" transform="translate(0.000000, 13.909534)">
                    <mask id="mask-2" fill="white">
                        <use xlink:href="#path-1"></use>
                    </mask>
                    <g id="Clip-2"></g>
                    <path d="M19.6532804,16.6072536 L1.92349464,16.6072536 C0.861191071,16.6072536 -0.000166071429,15.7458964 -0.000166071429,14.6835929 L-0.000166071429,2.32123571 C-0.000166071429,1.25893214 0.861191071,0.398128571 1.92349464,0.398128571 L19.6532804,0.398128571 C20.7155839,0.398128571 21.5769411,1.25893214 21.5769411,2.32123571 L21.5769411,14.6835929 C21.5769411,15.7458964 20.7155839,16.6072536 19.6532804,16.6072536" id="Fill-1" fill="#170409" mask="url(#mask-2)"></path>
                </g>
                <g id="Group-6" transform="translate(2.767857, 0.070248)">
                    <mask id="mask-4" fill="white">
                        <use xlink:href="#path-3"></use>
                    </mask>
                    <g id="Clip-5"></g>
                    <path d="M8.02075179,4.56081964 C5.90168036,4.56081964 4.17785893,6.28464107 4.17785893,8.4037125 L4.17785893,18.0845696 C4.17785893,20.2036411 5.90168036,21.9274625 8.02075179,21.9274625 C10.1398232,21.9274625 11.8636446,20.2036411 11.8636446,18.0845696 L11.8636446,8.4037125 C11.8636446,6.28464107 10.1398232,4.56081964 8.02075179,4.56081964 M8.02075179,26.0045161 C3.65307321,26.0045161 0.100251786,22.4516946 0.100251786,18.0845696 L0.100251786,8.4037125 C0.100251786,4.0365875 3.65307321,0.4832125 8.02075179,0.4832125 C12.3878768,0.4832125 15.9412518,4.0365875 15.9412518,8.4037125 L15.9412518,18.0845696 C15.9412518,22.4516946 12.3878768,26.0045161 8.02075179,26.0045161" id="Fill-4" fill="#170409" mask="url(#mask-4)"></path>
                </g>
                <path d="M14.6316679,21.9974893 C14.6316679,19.8750964 12.9111679,18.1545964 10.788775,18.1545964 C8.66582857,18.1545964 6.94532857,19.8750964 6.94532857,21.9974893 C6.94532857,24.1198821 8.66582857,25.8403821 10.788775,25.8403821 C12.9111679,25.8403821 14.6316679,24.1198821 14.6316679,21.9974893" id="Fill-7" fill="#4FC95B"></path>
            </g>
        </g>
    </g>
</svg>