<?xml version="1.0" encoding="UTF-8"?>
<svg width="19px" height="19px" viewBox="0 0 19 19" version="1.1" xmlns="http://www.w3.org/2000/svg" xmlns:xlink="http://www.w3.org/1999/xlink">
    <!-- Generator: Sketch 52.2 (67145) - http://www.bohemiancoding.com/sketch -->
    <title>Group 14</title>
    <desc>Created with Sketch.</desc>
    <defs>
        <polygon id="path-1" points="0.174074544 0.114515495 9.15945353 0.114515495 9.15945353 5.72462983 0.174074544 5.72462983"></polygon>
    </defs>
    <g id="Mockups_web" stroke="none" stroke-width="1" fill="none" fill-rule="evenodd">
        <g id="desktop_stat" transform="translate(-67.000000, -160.809155)">
            <g id="Group-14" transform="translate(67.358782, 161.566996)">
                <path d="M7.50624913,12.0080064 C7.01393096,12.756788 6.6979314,13.6269318 6.61091702,14.565771 C6.2216422,14.5863797 5.80466016,14.5886696 5.37210713,14.5886696 C3.17842898,14.5886696 1.40150388,14.5337131 1.40150388,12.340035 C1.40150388,11.3897464 1.73582226,10.5173128 2.29202729,9.83493695 C2.96547275,9.00601055 3.96842789,8.45415624 5.1019046,8.37859112 C5.35378831,9.23499575 5.75657327,10.0272845 6.28094936,10.7256894 C6.63816626,11.1996887 7.04827874,11.6301809 7.50624913,12.0080064" id="Fill-1" fill="#FFFFFF"></path>
                <path d="M9.34259589,12.3399663 C9.34259589,12.3926329 9.34259589,12.4430096 9.33801618,12.4933864 C9.33114663,12.7132121 9.30366841,12.9078496 9.25787137,13.0841682 C9.05865425,13.8512685 8.5228289,14.2290941 7.78297774,14.4122823 C7.87915152,13.7757034 8.10813671,13.1849216 8.44268408,12.6651252 C8.54572742,12.5025458 8.66022001,12.3491257 8.78158216,12.2025752 C8.90958489,12.0514449 9.04720499,11.9071843 9.19375551,11.7743728 C9.01972677,11.6804889 8.85027772,11.5751557 8.68769824,11.4652428 C8.52969845,11.3553299 8.37627837,11.2408373 8.227438,11.1171853 C7.95471663,10.8927798 7.70077205,10.6454758 7.47178686,10.3775632 C6.99091795,9.82570885 6.60851268,9.18684016 6.34746956,8.49072517 C7.18784522,8.70139155 7.92059784,9.18226046 8.44955363,9.8325784 C8.62587223,10.0478245 8.78158216,10.2836792 8.90752402,10.5332731 C8.99682825,10.7073018 9.07468321,10.8882001 9.13650921,11.075968 C9.20291492,11.2728953 9.25558151,11.4789819 9.28992929,11.6919382 C9.29679885,11.7400251 9.30366841,11.788112 9.31030898,11.8361988 C9.33114663,12.0010682 9.34259589,12.1682274 9.34259589,12.3399663" id="Fill-3" fill="#4FC95B"></path>
                <path d="M5.1019046,8.37856822 C5.35378831,9.23497285 5.75657327,10.0272616 6.28094936,10.7256665 C5.98555846,10.7783331 5.68100815,10.8035214 5.37210713,10.8035214 C4.22489131,10.8035214 3.16217103,10.4463045 2.29202729,9.83491405 C0.906895858,8.86172698 0.000114492597,7.25196107 0.000114492597,5.43152879 C0.000114492597,2.46617053 2.40445902,0.0618260022 5.37210713,0.0618260022 C6.14378723,0.0618260022 6.8788297,0.224405489 7.54265778,0.519796389 C5.869005,1.88225829 4.79964414,3.95686414 4.79964414,6.278774 C4.79964414,7.00694692 4.90497733,7.71222131 5.1019046,8.37856822" id="Fill-5" fill="#FFFFFF"></path>
                <path d="M10.741558,5.43150589 C10.741558,7.25193817 9.83500565,8.86170408 8.44941624,9.8326013 C8.14486594,10.0478474 7.81741711,10.2310355 7.47187845,10.3775861 C6.99100955,9.82573175 6.60837529,9.18686306 6.34756115,8.49074807 C6.08651803,7.80379249 5.94454721,7.05730076 5.94454721,6.2787511 C5.94454721,4.16063806 6.99765012,2.28524933 8.60970588,1.14948277 C9.90599106,2.12724955 10.741558,3.68205901 10.741558,5.43150589" id="Fill-7" fill="#170409"></path>
                <g id="Group-11" transform="translate(7.556511, 11.659926)">
                    <mask id="mask-2" fill="white">
                        <use xlink:href="#path-1"></use>
                    </mask>
                    <g id="Clip-10"></g>
                    <path d="M9.15945353,3.43022109 C9.15945353,5.50940665 7.79012207,5.72465273 4.66676404,5.72465273 C1.54317701,5.72465273 0.174074544,5.50940665 0.174074544,3.43022109 C0.174074544,3.19894605 0.192393359,2.97225071 0.226512153,2.75242492 C0.322685934,2.11584608 0.551671128,1.52506429 0.886218495,1.0052679 C0.989032847,0.84268841 1.10352544,0.68926833 1.22511658,0.542717807 C1.3531193,0.391587579 1.49073941,0.247326907 1.63706094,0.114515495 C1.67598843,0.137414015 1.71491591,0.158022682 1.75384339,0.176341497 C2.62421611,0.638891588 3.615722,0.897644856 4.66676404,0.897644856 C5.76360311,0.897644856 6.79632634,0.613703217 7.69600916,0.114515495 C7.84278867,0.247326907 7.98017978,0.391587579 8.10818251,0.542717807 C8.22954466,0.68926833 8.34403726,0.84268841 8.44730958,1.0052679 C8.89818142,1.70596259 9.15945353,2.53717884 9.15945353,3.43022109" id="Fill-9" fill="#FFFFFF" mask="url(#mask-2)"></path>
                </g>
                <path d="M18.5020036,6.2787969 C18.5020036,8.22517104 17.6135411,9.96545851 16.2190212,11.117254 C16.0701809,11.240906 15.9167608,11.3553986 15.758761,11.4653115 C15.5961815,11.5752244 15.4267325,11.6805576 15.2527037,11.7744415 C14.3527919,12.2736293 13.3200687,12.5575709 12.2232296,12.5575709 C11.1721876,12.5575709 10.1806817,12.2988176 9.31030898,11.8362675 C9.27138149,11.8179487 9.232683,11.7973401 9.19375551,11.7744415 C9.01972677,11.6805576 8.85027772,11.5752244 8.68769824,11.4653115 C8.52969845,11.3553986 8.37627837,11.240906 8.227438,11.117254 C7.95471663,10.8928485 7.70077205,10.6455445 7.47178686,10.3776319 C6.99091795,9.82577754 6.60851268,9.18690886 6.34746956,8.49079387 C6.08642644,7.80383829 5.94445562,7.05734656 5.94445562,6.2787969 C5.94445562,4.16068386 6.99778751,2.28529513 8.60984327,1.14952857 C9.63340708,0.425935358 10.8790865,2.28985193e-05 12.2232296,2.28985193e-05 C15.6854857,2.28985193e-05 18.5020036,2.81654078 18.5020036,6.2787969" id="Fill-12" fill="#FFFFFF"></path>
            </g>
        </g>
    </g>
</svg>