<?xml version="1.0" encoding="UTF-8"?>
<svg width="31px" height="30px" viewBox="0 0 31 30" version="1.1" xmlns="http://www.w3.org/2000/svg" xmlns:xlink="http://www.w3.org/1999/xlink">
    <!-- Generator: Sketch 52.2 (67145) - http://www.bohemiancoding.com/sketch -->
    <title>setting-inactive</title>
    <desc>Created with Sketch.</desc>
    <defs>
        <polygon id="path-1" points="7.06287446e-05 0.15787172 29.3466199 0.15787172 29.3466199 29.5044141 7.06287446e-05 29.5044141"></polygon>
    </defs>
    <g id="Design-System" stroke="none" stroke-width="1" fill="none" fill-rule="evenodd">
        <g id="Design-System-Copy" transform="translate(-28.562006, -518.000000)">
            <g id="setting-inactive" transform="translate(29.431733, 518.220977)">
                <g id="Group-3" transform="translate(0.000000, 0.342401)">
                    <mask id="mask-2" fill="white">
                        <use xlink:href="#path-1"></use>
                    </mask>
                    <g id="Clip-2"></g>
                    <path d="M9.72360474,19.7805593 C6.9901958,17.0471504 6.9901958,12.6149873 9.72360474,9.88157837 C12.4575138,7.14766936 16.8891768,7.14766936 19.6230858,9.88157837 C22.3569948,12.6149873 22.3569948,17.0471504 19.6230858,19.7805593 C16.8891768,22.5144684 12.4575138,22.5144684 9.72360474,19.7805593 M21.1403128,26.8916232 L20.8162643,25.6819422 C21.7734075,25.1398611 22.6745423,24.46376 23.4906644,23.648138 C24.3062864,22.8325159 24.9823876,21.9308811 25.5244687,20.9737379 L26.7341497,21.2977863 C27.4472564,21.489315 28.1878672,21.061751 28.3788957,20.3481443 L29.3010337,16.9056292 C29.4920623,16.1925225 29.0649984,15.4519117 28.3513916,15.2608832 L27.1402104,14.9363346 C27.1587132,12.7100015 26.5871277,10.4801679 25.4209532,8.50287211 L26.3035853,7.61973998 C26.8261634,7.09766187 26.8261634,6.24253394 26.3035853,5.71995576 L23.7842083,3.20057884 C23.2616301,2.67800065 22.4070023,2.67800065 21.8844241,3.20057884 L21.0017921,4.08321088 C19.0244962,2.91703641 16.7941626,2.3454509 14.5683296,2.36395367 L14.2432809,1.15277247 C14.0522523,0.439665778 13.3121416,0.0121018105 12.5985349,0.203630465 L9.1565199,1.12576843 C8.44241306,1.316797 8.01534917,2.05690773 8.20687782,2.77051449 L8.53042623,3.98019547 C7.57378311,4.52227657 6.67164814,5.19787765 5.85652619,6.01399975 C5.04040409,6.82962177 4.36480301,7.73125667 3.82222184,8.68839986 L2.61304093,8.36435138 C1.89943417,8.1733228 1.15932345,8.60038669 0.967794791,9.31399346 L0.0456568307,12.7560084 C-0.145371749,13.4696152 0.281692144,14.2097259 0.995298906,14.4012546 L2.20648011,14.7258031 C2.18797734,16.9516361 2.75956286,19.1819698 3.92573733,21.1592656 L3.04310528,22.0418977 C2.52052709,22.5644758 2.52052709,23.4196038 3.04310528,23.9416819 L5.5624822,26.4615589 C6.08506038,26.9841371 6.94018831,26.9841371 7.46226642,26.4615589 L8.34489847,25.5784268 C10.3221943,26.7446012 12.552528,27.3166868 14.778361,27.2981841 L15.1034096,28.5088652 C15.2944382,29.2224719 16.0345489,29.6500359 16.7481557,29.4590073 L20.1906707,28.5363693 C20.9037774,28.3453407 21.3313414,27.6047299 21.1403128,26.8916232" id="Fill-1" fill="#9B9B9B" mask="url(#mask-2)"></path>
                </g>
                <path d="M18.267833,18.7677578 C20.25313,16.7824608 20.25313,13.5639793 18.267833,11.5791823 C16.282536,9.59388533 13.0640545,9.59388533 11.0787575,11.5791823 C9.09396054,13.5639793 9.09396054,16.7824608 11.0787575,18.7677578 C13.0640545,20.7530548 16.282536,20.7530548 18.267833,18.7677578" id="Fill-4" fill="#9B9B9B"></path>
            </g>
        </g>
    </g>
</svg>