<?xml version="1.0" encoding="UTF-8"?>
<svg width="20px" height="15px" viewBox="0 0 20 15" version="1.1" xmlns="http://www.w3.org/2000/svg" xmlns:xlink="http://www.w3.org/1999/xlink">
    <!-- Generator: Sketch 52.2 (67145) - http://www.bohemiancoding.com/sketch -->
    <title>Group 18</title>
    <desc>Created with Sketch.</desc>
    <defs>
        <polygon id="path-1" points="8.75e-05 0.16209375 15.1084937 0.16209375 15.1084937 10.2818844 8.75e-05 10.2818844"></polygon>
    </defs>
    <g id="Mockups_web" stroke="none" stroke-width="1" fill="none" fill-rule="evenodd">
        <g id="desktop_coupon_create" transform="translate(-66.000000, -628.000000)">
            <g id="Group-18" transform="translate(65.983996, 628.463163)">
                <g id="Group-3" transform="translate(0.000000, 0.056744)">
                    <mask id="mask-2" fill="white">
                        <use xlink:href="#path-1"></use>
                    </mask>
                    <g id="Clip-2"></g>
                    <path d="M14.4443687,10.2818844 L0.6642125,10.2818844 C0.29736875,10.2818844 8.75e-05,9.98460312 8.75e-05,9.61754062 L8.75e-05,0.826196875 C8.75e-05,0.459353125 0.29736875,0.162071875 0.6642125,0.162071875 L14.4443687,0.162071875 C14.8112125,0.162071875 15.1084937,0.459353125 15.1084937,0.826196875 L15.1084937,9.61754062 C15.1084937,9.98460312 14.8112125,10.2818844 14.4443687,10.2818844" id="Fill-1" fill="#EEEEEE" mask="url(#mask-2)"></path>
                </g>
                <path d="M8.7696875,5.27865625 C8.7696875,4.60753125 8.22565625,4.06328125 7.5543125,4.06328125 C6.8831875,4.06328125 6.3389375,4.60753125 6.3389375,5.27865625 C6.3389375,5.94978125 6.8831875,6.49403125 7.5543125,6.49403125 C8.22565625,6.49403125 8.7696875,5.94978125 8.7696875,5.27865625" id="Fill-4" fill="#FFFFFF"></path>
                <path d="M5.24682812,5.27865625 C5.24682812,4.60753125 4.70279687,4.06328125 4.03145312,4.06328125 C3.36032812,4.06328125 2.81629687,4.60753125 2.81629687,5.27865625 C2.81629687,5.94978125 3.36032812,6.49403125 4.03145312,6.49403125 C4.70279687,6.49403125 5.24682812,5.94978125 5.24682812,5.27865625" id="Fill-6" fill="#4FC95B"></path>
                <path d="M12.2923281,5.27865625 C12.2923281,4.60753125 11.7482969,4.06328125 11.0769531,4.06328125 C10.4058281,4.06328125 9.86179687,4.60753125 9.86179687,5.27865625 C9.86179687,5.94978125 10.4058281,6.49403125 11.0769531,6.49403125 C11.7482969,6.49403125 12.2923281,5.94978125 12.2923281,5.27865625" id="Fill-8" fill="#FFFFFF"></path>
                <path d="M4.15281562,13.8379937 C3.78597187,13.8379937 3.48869062,13.5407125 3.48869062,13.17365 L3.48869062,3.81836875 C3.48869062,3.45174375 3.78597187,3.15424375 4.15281562,3.15424375 L18.7749406,3.15424375 C19.1417844,3.15424375 19.4390656,3.45174375 19.4390656,3.81836875 L19.4390656,13.17365 C19.4390656,13.5407125 19.1417844,13.8379937 18.7749406,13.8379937 L4.15281562,13.8379937 Z" id="Fill-10" fill="#FFFFFF"></path>
                <path d="M12.6792094,8.49614062 C12.6792094,7.82501562 12.1351781,7.28076562 11.4638344,7.28076562 C10.7927094,7.28076562 10.2486781,7.82501562 10.2486781,8.49614062 C10.2486781,9.16726562 10.7927094,9.71151562 11.4638344,9.71151562 C12.1351781,9.71151562 12.6792094,9.16726562 12.6792094,8.49614062" id="Fill-12" fill="#4FC95B"></path>
                <path d="M9.15656875,8.49614062 C9.15656875,7.82501562 8.6125375,7.28076562 7.94119375,7.28076562 C7.27006875,7.28076562 6.7260375,7.82501562 6.7260375,8.49614062 C6.7260375,9.16726562 7.27006875,9.71151562 7.94119375,9.71151562 C8.6125375,9.71151562 9.15656875,9.16726562 9.15656875,8.49614062" id="Fill-14" fill="#4FC95B"></path>
                <path d="M16.2020687,8.49614062 C16.2020687,7.82501562 15.6578187,7.28076562 14.986475,7.28076562 C14.31535,7.28076562 13.7713187,7.82501562 13.7713187,8.49614062 C13.7713187,9.16726562 14.31535,9.71151562 14.986475,9.71151562 C15.6578187,9.71151562 16.2020687,9.16726562 16.2020687,8.49614062" id="Fill-16" fill="#4FC95B"></path>
            </g>
        </g>
    </g>
</svg>