<?xml version="1.0" encoding="UTF-8"?>
<svg width="55px" height="36px" viewBox="0 0 55 36" version="1.1" xmlns="http://www.w3.org/2000/svg" xmlns:xlink="http://www.w3.org/1999/xlink">
    <!-- Generator: Sketch 52.2 (67145) - http://www.bohemiancoding.com/sketch -->
    <title>icon_visualize</title>
    <desc>Created with Sketch.</desc>
    <defs>
        <polygon id="path-1" points="0.573253333 0.487166667 34.8907533 0.487166667 34.8907533 36.3832717 0.573253333 36.3832717"></polygon>
        <polygon id="path-3" points="0 0.219471667 19.8093963 0.219471667 19.8093963 11.0893008 0 11.0893008"></polygon>
        <polygon id="path-5" points="0.308893538 0.493610833 20.1181333 0.493610833 20.1181333 11.36344 0.308893538 11.36344"></polygon>
    </defs>
    <g id="landingpage" stroke="none" stroke-width="1" fill="none" fill-rule="evenodd">
        <g id="Desktop-HD" transform="translate(-1077.972758, -1688.292295)">
            <g id="icon_visualize" transform="translate(1078.000000, 1687.719875)">
                <g id="Group-3" transform="translate(9.250000, 0.129500)">
                    <mask id="mask-2" fill="white">
                        <use xlink:href="#path-1"></use>
                    </mask>
                    <g id="Clip-2"></g>
                    <path d="M25.94292,23.6984383 C24.8020867,23.6984383 23.77842,23.0139383 23.3405867,21.9594383 C22.9027533,20.9049383 23.1432533,19.6962717 23.9510867,18.8884383 L32.8865867,9.95293833 C33.02842,9.811105 33.1825867,9.68777167 33.3490867,9.589105 C30.5000867,4.56943833 25.3015867,1.060605 19.2520867,0.548771667 C19.0547533,0.536438333 18.85742,0.524105 18.6600867,0.511771667 C18.37642,0.493271667 18.0927533,0.487105 17.80292,0.487105 L17.7350867,0.487105 C17.4452533,0.487105 17.1615867,0.493271667 16.87792,0.511771667 C16.63742,0.524105 16.39692,0.542605 16.1625867,0.561105 C8.77492,1.19627167 2.66992,6.30843833 0.573253333,13.1719383 L9.59508667,13.1719383 C10.73592,13.1719383 11.7595867,13.8564383 12.19742,14.9109383 C12.6352533,15.9654383 12.3947533,17.174105 11.58692,17.9819383 L2.65142,26.9174383 C2.50958667,27.0592717 2.35542,27.182605 2.18892,27.2812717 C2.17658667,27.2997717 2.15808667,27.3059383 2.13958667,27.3182717 C5.00092,32.3379383 10.21792,35.840605 16.28592,36.321605 C16.4832533,36.3339383 16.6805867,36.3462717 16.87792,36.358605 C17.1615867,36.377105 17.4452533,36.3832717 17.7350867,36.3832717 L17.80292,36.3832717 C18.0927533,36.3832717 18.37642,36.377105 18.6600867,36.358605 C18.9005867,36.3462717 19.1410867,36.3339383 19.3815867,36.3092717 C26.7322533,35.637105 32.8002533,30.5372717 34.8907533,23.6984383 L25.94292,23.6984383 Z" id="Fill-1" fill="#4FC95B" mask="url(#mask-2)"></path>
                </g>
                <g id="Group-6" transform="translate(0.000000, 14.929500)">
                    <mask id="mask-4" fill="white">
                        <use xlink:href="#path-3"></use>
                    </mask>
                    <g id="Clip-5"></g>
                    <path d="M19.5242217,1.87028833 L10.588105,10.8057883 C10.210705,11.183805 9.598355,11.183805 9.220955,10.8057883 L0.284838333,1.87028833 C-0.324428333,1.26102167 0.107238333,0.219471667 0.968721667,0.219471667 L18.8403383,0.219471667 C19.7018217,0.219471667 20.1334883,1.26102167 19.5242217,1.87028833" id="Fill-4" fill="#4FC95B" mask="url(#mask-4)"></path>
                </g>
                <g id="Group-9" transform="translate(33.916667, 10.612833)">
                    <mask id="mask-6" fill="white">
                        <use xlink:href="#path-5"></use>
                    </mask>
                    <g id="Clip-8"></g>
                    <path d="M0.59422,9.71262333 L9.52972,0.777123333 C9.90773667,0.399106667 10.51947,0.399106667 10.8974867,0.777123333 L19.8329867,9.71262333 C20.4422533,10.32189 20.0105867,11.36344 19.1491033,11.36344 L1.27748667,11.36344 C0.416003333,11.36344 -0.0150466667,10.32189 0.59422,9.71262333" id="Fill-7" fill="#4FC95B" mask="url(#mask-6)"></path>
                </g>
            </g>
        </g>
    </g>
</svg>